/* XPM */
static char *_402738e456a4576dc8047340d6887da[] = {
/* columns rows colors chars-per-pixel */
"64 64 195 2 ",
"   c #7F1867",
".  c #7D196C",
"X  c #7B1B73",
"o  c #7A1F7A",
"O  c #7F2176",
"+  c #7D247C",
"@  c #9F1636",
"#  c #9B163C",
"$  c #9D193C",
"%  c #A71426",
"&  c #A91525",
"*  c #A5152A",
"=  c #A81629",
"-  c #A6182E",
";  c #AB1B2D",
":  c #A21632",
">  c #A51B34",
",  c #A91E33",
"<  c #A31D3B",
"1  c #AF212E",
"2  c #B0212C",
"3  c #AC2133",
"4  c #A6233D",
"5  c #A9223A",
"6  c #AE283A",
"7  c #B02D3E",
"8  c #8F164D",
"9  c #961643",
"0  c #971844",
"q  c #9D1D43",
"w  c #90174E",
"e  c #941A4C",
"r  c #9A1E4A",
"t  c #8F1C57",
"y  c #83175F",
"u  c #86195E",
"i  c #8B1C5B",
"p  c #911B52",
"a  c #A11F41",
"s  c #9F2046",
"d  c #9E244D",
"f  c #962256",
"g  c #9A2553",
"h  c #9F2C55",
"j  c #95265C",
"k  c #982658",
"l  c #9C2C5A",
"z  c #A32344",
"x  c #A62946",
"c  c #AE2F44",
"v  c #A02449",
"b  c #AB2E49",
"n  c #AD3147",
"m  c #AA314C",
"M  c #B33343",
"N  c #B33A4E",
"B  c #A22E54",
"V  c #A63154",
"C  c #AB3450",
"Z  c #A3335A",
"A  c #A93C5E",
"S  c #B53E51",
"D  c #821762",
"F  c #841B64",
"G  c #891E62",
"H  c #821D6A",
"J  c #8D2465",
"K  c #8F2867",
"L  c #85206B",
"P  c #8A256B",
"I  c #8D286C",
"U  c #922763",
"Y  c #902866",
"T  c #982C61",
"R  c #96316A",
"E  c #9C3A6E",
"W  c #832373",
"Q  c #882771",
"!  c #872976",
"~  c #892972",
"^  c #80257A",
"/  c #842A7C",
"(  c #923070",
")  c #973873",
"_  c #9C3F75",
"`  c #953A78",
"'  c #993F7B",
"]  c #A83E63",
"[  c #BA414D",
"{  c #B64254",
"}  c #B0435E",
"|  c #B34862",
" . c #BF5360",
".. c #B7556E",
"X. c #B9556A",
"o. c #BD5D72",
"O. c #B65F7F",
"+. c #B85D79",
"@. c #C15662",
"#. c #C15A66",
"$. c #C36574",
"%. c #C76A76",
"&. c #C36C7E",
"*. c #CA727E",
"=. c #7E2B85",
"-. c #7D2C88",
";. c #812B82",
":. c #943D80",
">. c #AE5980",
",. c #A1548C",
"<. c #B15E84",
"1. c #A15792",
"2. c #A25E9C",
"3. c #B46286",
"4. c #B5678A",
"5. c #B6698E",
"6. c #B96B8B",
"7. c #AF6A99",
"8. c #B36B94",
"9. c #B36F9B",
"0. c #BF7693",
"q. c #B0709F",
"w. c #A262A1",
"e. c #AA6AA3",
"r. c #AF70A1",
"t. c #B070A0",
"y. c #B97CA5",
"u. c #B77FAE",
"i. c #B97FAA",
"p. c #B57FB1",
"a. c #CB7782",
"s. c #C5778C",
"d. c #CC7D8A",
"f. c #C67C91",
"g. c #BE89B2",
"h. c #BF90BA",
"j. c #CF848F",
"k. c #C2819E",
"l. c #C9869C",
"z. c #CF8C9B",
"x. c #D48E96",
"c. c #D59098",
"v. c #C083A5",
"b. c #CB8CA2",
"n. c #C189AC",
"m. c #CE91A3",
"M. c #CE95AB",
"N. c #D296A6",
"B. c #D59EAE",
"V. c #C38FB4",
"C. c #C18FB8",
"Z. c #C092BB",
"A. c #C49ABF",
"S. c #C99EBD",
"D. c #DDA5AD",
"F. c #D9A7B4",
"G. c #DEAEB7",
"H. c #D5A7B9",
"J. c #D6ABBE",
"K. c #DDAEB9",
"L. c #DDB1BE",
"P. c #E2B3BA",
"I. c #C49DC5",
"U. c #DAB4C6",
"Y. c #D7B5CB",
"T. c #D8B4C9",
"R. c #DCBBCD",
"E. c #E4BCC4",
"W. c #E1BDC9",
"Q. c #DCC1D6",
"!. c #DCC3DA",
"~. c #E6C0C7",
"^. c #E6C3CA",
"/. c #E9C6CB",
"(. c #E2C5D3",
"). c #E4CDDD",
"_. c #EDD1D5",
"`. c #E7D1DF",
"'. c #ECD4DB",
"]. c #F1DBDE",
"[. c #E2CEE0",
"{. c #E6D2E1",
"}. c #EAD7E3",
"|. c #ECDAE5",
" X c #E9DAE9",
".X c #F2DEE2",
"XX c #F2E1E4",
"oX c #F1E2E9",
"OX c #F6EBEE",
"+X c #F8EDEE",
"@X c #F8EFF0",
"#X c #FAF3F5",
"$X c #FBF7F8",
"%X c #FFFFFF",
"&X c None",
/* pixels */
"&X&X&X&X&X&X&X&X&X&X&X&X&X&X&X&X&X&X&X&X&X&X&X&X&X&X&X&X$.$.$.$.$.$.$.&X&X&X&X&X&X&X&X&X&X&X&X&X&X&X&X&X&X&X&X&X&X&X&X&X&X&X&X&X",
"&X&X&X&X&X&X&X&X&X&X&X&X&X&X&X&X&X&X&X&X&X&X&X< < > < > > , > > , , , , ; ; & [ &X&X&X&X&X&X&X&X&X&X&X&X&X&X&X&X&X&X&X&X&X&X&X&X",
"&X&X&X&X&X&X&X&X&X&X&X&X&X&X&X&X&X&X&X&Xz z z z 4 4 4 4 5 4 5 5 5 5 3 3 3 3 3 ; & & & &X&X&X&X&X&X&X&X&X&X&X&X&X&X&X&X&X&X&X&X&X",
"&X&X&X&X&X&X&X&X&X&X&X&X&X&X&X&X&X&Xv v v z z z z z z 4 5 4 5 4 5 , 5 3 3 3 3 3 3 1 1 1 2 &X&X&X&X&X&X&X&X&X&X&X&X&X&X&X&X&X&X&X",
"&X&X&X&X&X&X&X&X&X&X&X&X&X&X&X&Xd v v v v z z z z z 4 4 4 4 5 5 5 5 5 3 5 3 3 3 3 3 1 1 1 1 1 &X&X&X&X&X&X&X&X&X&X&X&X&X&X&X&X&X",
"&X&X&X&X&X&X&X&X&X&X&X&X&X&Xd d d d d v v v v z z z z 4 z 4 4 4 5 5 5 5 3 5 3 3 3 3 , 1 3 1 1 2 2 &X&X&X&X&X&X&X&X&X&X&X&X&X&X&X",
"&X&X&X&X&X&X&X&X&X&X&X&X&Xg g d d d d v v v v v z z z z z 4 4 4 4 5 5 5 3 5 5 3 3 3 3 3 3 2 2 1 2 2 &X&X&X&X&X&X&X&X&X&X&X&X&X&X",
"&X&X&X&X&X&X&X&X&X&X&X&Xg g g d d d d d v v v v z z z z z 4 4 4 4 4 4 5 5 5 3 5 3 3 3 3 1 3 3 2 1 1 2 2 &X&X&X&X&X&X&X&X&X&X&X&X",
"&X&X&X&X&X&X&X&X&X&X&Xg g g d g g r d d r r s s a a z < a a 4 < 4 4 > < > , 5 , , , 3 3 3 1 3 3 1 1 1 2 2 &X&X&X&X&X&X&X&X&X&X&X",
"&X&X&X&X&X&X&X&X&Xk k k k k g l Z Z h Z V V V V V V V V m m m m m b b n c c c c c 6 , * = ; 3 1 1 1 1 1 2 2 &X&X&X&X&X&X&X&X&X&X",
"&X&X&X&X&X&X&X&X&Xj k k k g e H.OXOXOXOXOXOXOXOXOXOXOXOXOXOXOXOXOXOX+X+X@X$X$X$X#XOX_.D.%.7 & ; 3 1 1 1 2 2 2 &X&X&X&X&X&X&X&X&X",
"&X&X&X&X&X&X&X&Xj j j k k k e W.%X%X%X%X%X%X%X%X%X%X%X%X%X%X%X%X%X%X%X%X+X_.E.P.~..X%X%X%XOXc.7 = 3 1 1 1 2 2 2 &X&X&X&X&X&X&X&X",
"&X&X&X&X&X&X&Xj j j j j k j e U.%X%X%X%X%X%X%X%X%X%X%X%X%X%X%X%X%X$XK.o.m < > : > 3 S d._.%X%X.X#.& 1 1 1 1 1 2 2 &X&X&X&X&X&X&X",
"&X&X&X&X&X&XU U U U j j k k p U.%X%X%X%X%X%X%X%X%X%X%X%X%X%X%X%X^.| @ > < 4 4 4 4 4 > * < a.@X%X%Xa.& , 1 1 1 1 2 &X&X&X&X&X&X&X",
"&X&X&X&X&XU U U j U j j j k p U.%X%X%X%X%X%X%X%X%X%X%X%X%X%X%XN.< $ z 4 4 4 4 4 4 5 5 3 3 % S _.%X%X*.& 1 3 1 1 2 2 &X&X&X&X&X&X",
"&X&X&X&X&XY U U U j j j j j p U.%X%X%X%X%X%X%X%X%X%X%X%X%X%Xm.# s v z z z z 4 4 5 4 5 4 5 5 - c '.%X$X@.= 3 1 1 1 2 2 &X&X&X&X&X",
"&X&X&X&XK K U U U U U j j j p U.%X%X%X%X%X%X%X%X%X%X%X%X%XL.# s v z v z z z z 5 4 4 4 5 5 5 5 - { @X%X.X6 ; 3 3 2 2 2 &X&X&X&X&X",
"&X&X&X&XK K K U Y U j U j U t U.%X%X%X%X%X%X%X%X%X%X%X%XOXV q v v v z z z z z z 4 4 4 5 5 5 5 5 % d.%X%Xx.& 3 2 3 1 1 2 &X&X&X&X",
"&X&X&XI K K K K U U U U U j t U.%X%X%X%X%X%X%X%X%X%X%X%Xl.# d d v v v z z z z 4 z 4 5 x 5 5 5 5 , , ].%X+X7 ; 3 1 1 1 1 &X&X&X&X",
"&X&X&XI I I K K Y Y U U U j t T.%X%X%X%X%X%X%X%X%X%X%X@XZ g d d v v v z z z z z z z 4 z 4 4 4 5 4 * j.%X%X*.* 3 3 1 3 1 ; &X&X&X",
"&X&XI I I I I K K K U U U U t T.%X%X%X%X%X%X%X%X%X%X%XW.e d d g v d v v v z z z z 4 4 4 4 5 4 5 5 > { %X%XP.* 3 3 1 3 1 ; &X&X&X",
"&X&X~ I I I I K K K K Y U U i U.%X%X%X%X%X%X%X%X%X%X%Xb.9 d d d d d d v v v z v z z z z z 5 4 5 5 5 5 .X%X].3 3 3 3 3 1 ; [ &X&X",
"&X&XI ~ I I I I I K K K U U i T.%X%X%X%X%X%X%X%X%X%X%X6.e g d g d d v v v v v z z z z z z 5 z 4 4 5 > /.%X+XM , 3 3 3 1 2 M &X&X",
"&X! ~ ~ ~ I I I I K K K K U i T.%X%X%X%X%X%X%X%X%X%X%X3.e g d d d B d d v v v v z z z z z z 5 5 4 4 > E.%X#XN , 3 5 , 3 1 & &X&X",
"&X! ~ ~ ~ I I I I I I K K K i T.%X%X%X%X%X%X%X%X%X%X%X6.e k g g g d d d d d v v v z z z z 4 z 4 4 4 > ~.%X#XN , 5 3 3 3 3 & &X&X",
"&X! ~ ~ ~ I ~ I I I I I K K G T.%X%X%X%X%X%X%X%X%X%X%Xf.e g g g g d d d d d d v v v v z z z z 5 4 4 4 '.%X@Xn > 5 3 5 3 3 ; @.&X",
"! ~ ~ ~ ~ ~ ~ ( I I I I K K G T.%X%X%X%X%X%X%X%X%X%X%XJ.e k k g g d g d d d d v v v v z v z z z 4 < C #X%X'.5 3 5 5 3 3 3 ; M &X",
"! ! ! ! ~ ~ Q ~ ~ I I I I I i Y.%X%X%X%X%X%X%X%X%X%X%XoXk f g g g g g d d d d d v v v v z z z z z @ &.%X%XG.: 5 5 3 5 3 3 3 6 &X",
"! ! ! ! ! ~ ~ ~ ~ I ~ I I K F Y.%X%X%X%X%X%X%X%X%X%X%X%X4.e k k k g d g g d d d d v v v v v z z z > W.%X%X&.: 5 5 5 5 5 5 3 , &X",
"/ ! ! ! ! ! ~ ~ ~ ~ I I I I J Y.%X%X%X%X%X%X%X%X%X%X%X%X).f k k k g k g g d d g d d d v v z v v $ X.%X%XOXx 4 4 4 5 5 3 3 5 ; &X",
"/ ! ! ! ! ! ~ ! ~ ~ Q ~ ~ I G Y.%X%X%X%X%X%X%X%X%X%X%X%X%Xk.8 k g k g d g g g d d d d v v v v a v _.%X%Xz.@ 4 4 4 3 5 5 5 3 - &X",
"/ / / ! ! ! ! ~ ~ ~ ~ I ~ I F Y.%X%X%X%X%X%X%X%X%X%X%X%X%X$X>.8 k k k g k d k d d d d d v v s # F.%X%X.Xx 4 4 4 4 4 5 4 5 5 - &X",
"/ / / / ! ! ! ! ~ ~ ~ ~ ~ I H R.%X%X%X%X%X%X%X%X%X%X%X%X%X%X$X3.p k k g g g g g g d d d d q q B.%X%X$X..@ z z 4 4 5 4 5 5 5 > &X",
"/ / / ! / / ! ! ! ! ~ ~ Q Q L S..X|.|. X X|. X|.|.|.|.|. X X.X{.<.k k g k g g g g d d d # A R.%X%X%Xs.$ z z z 4 4 z 5 4 5 5 > &X",
";./ / / / ! ! ! ! ! ~ ~ ~ Q I P H F J G G i G i i i u i t t t f k p p p e e e e e 9 e ] m.@X%X%X%Xf.$ v z z z 4 z z 5 4 4 5 > &X",
";./ ;./ / / / ! ! ! ! ~ ~ ~ L ,.7.7.7.7.7.7.8.5.8.8.8.8.5.5.5.5.5.5.5.5.5.6.6.6.0.N.(.#X%X%X%X|.+.# v v z v z z z 5 z 5 5 4 > &X",
";./ / / / / ! / ! ! ! ! ~ ~ H Q.%X%X%X%X%X%X%X%X%X%X%X%X%X%X%X%X%X%X%X%X%X%X%X%X%X%X%X%X%XXXb.h # d v v v z z z z 4 z 4 4 4 5 &X",
";.;.;.;.;./ / / / ! ! ! ! ~ W S. X|.|. X.X X X X|.|.|.|.|..X|.|.|.|.|.|.|.|.|.'.}._.W.M.O.h 9 d d d d v v v v z z z z z z 4 C &X",
"&X;.;./ / / / / / / ! ! ! ! ! L H L H F F F F G G G i i i i i t t t t t j j g k k f e 8 e g g d d d d d v v v z z z z 4 z < X.&X",
"&X;.;.;.;./ ;./ / / ! / ! ! ! 1.r.t.t.9.t.9.9.9.9.9.9.9.9.8.8.8.8.8.8.5.T f j k k k g g g d d g d d d d v v v v z z z z z : d.&X",
"&X;.;.;.;.;.;.;./ / / / ! ! . Q.%X%X%X%X%X%X%X%X%X%X%X%X%X%X%X%X%X%X%X%X_ f k j k k k k k g d d d d d d d v v v v z v z z @ &X&X",
"&X;.;.;.;.;.;./ ;./ / / ! / W A.}.}.}.}.}.}.}.}.}.}.}.}.}.}.}.}.}.}.'.).R j j j j k k k g g k g g k d d d d v d v v z z 4 m &X&X",
"&X&X;.;.;.;.;./ / / / / / / ! O . . H . H D H D D H G D y i u i u t t t U j j j j j k k k k k g g d d g d d d d v v v v a } &X&X",
"&X&X;.;.;.;.;.;.;.;./ / / ! / q.g.h.g.g.g.g.g.g.g.n.n.n.n.n.n.n.v.n.n.v.R j U j j j j k k k g g g k d k d d d d v v v v q &X&X&X",
"&X&X&X;.;.;.;.;.;./ ;./ / / X !.%X%X%X%X%X%X%X%X%X%X%X%X%X%X%X%X%X%X%X%X_ i j T j j k j k k k k g g g d g d d d v d v v a &X&X&X",
"&X&X&X-.;.;.;.;.+ =./ ;./ / O A.{.{.{.{.{.{.{.{.{.{.{.{.{.`.{.`.`.`._.).E U U j U U U k j k k k k g g g g d d d d v d v &X&X&X&X",
"&X&X&X&X-.-.;.;.=./ / =./ / / + X . . . . . . . H D D D D D y y y u t u J U U U U k U j j k k k k g g g g d g d d d d v &X&X&X&X",
"&X&X&X&X;.-.;.-./ =.=./ =./ + e.h.h.h.C.C.h.V.V.C.V.C.V.V.V.V.V.V.V.n.n.R J K U j U U k U k j k k g l k k g d g d d d &X&X&X&X&X",
"&X&X&X&X&X-.-.;.-.;.;.;.;.;.o !.%X%X%X%X%X%X%X%X%X%X%X%X%X%X%X%X%X%X%X%X_ J U U U U U j U j j j k k k k g g d d g d d &X&X&X&X&X",
"&X&X&X&X&X-.;.-.-.;.;.;.;.;.o I.[.[.[.[.[.[.[.!.).[.[.).).).).).).).).(.) J K U U U j U j j j j j k k k k g g g d g &X&X&X&X&X&X",
"&X&X&X&X&X&X-.-.-.;.-.;.;.;.;.o X X X X . . . . .   .     D   D D D D u P K K Y U U U U U T j j j k k k k k k d g &X&X&X&X&X&X&X",
"&X&X&X&X&X&X&X-.;.-.;.-.;.;.;.2.p.p.p.p.p.p.p.p.u.u.u.u.i.u.y.i.y.y.i.y.( J K K K Y U U U U j U j j j k k k k k g &X&X&X&X&X&X&X",
"&X&X&X&X&X&X&X&X-.-.=.=.;.=.o !.%X%X%X%X%X%X%X%X%X%X%X%X%X%X%X%X%X%X%X%X' P K K Y Y Y U U U U j U j j k k k k k &X&X&X&X&X&X&X&X",
"&X&X&X&X&X&X&X&X-.-.-.=.;.=.o I. X X X X X X X X X X X}. X X X X}. X|.).` P I I K K Y Y U U U j U j j j j k k &X&X&X&X&X&X&X&X&X",
"&X&X&X&X&X&X&X&X&X-.=.-.=.=.=.;.;.;.;./ / / / / / / ! ! ! Q ! Q ~ ~ ~ ~ I I I I K Y K Y Y U U U j j j j j j &X&X&X&X&X&X&X&X&X&X",
"&X&X&X&X&X&X&X&X&X&X-.-.-.=.=.=.;.+ =.;.;.+ / / / ! / ! ! ! ! Q Q ~ ~ I ~ I I I I I K K K U U U U U U j j &X&X&X&X&X&X&X&X&X&X&X",
"&X&X&X&X&X&X&X&X&X&X&X&X-.;.-.;.;.;.;.;.;.;./ ;./ / / ! / ! ! ~ ~ ~ ~ ~ ~ I I I I I K K K K K U U U U T &X&X&X&X&X&X&X&X&X&X&X&X",
"&X&X&X&X&X&X&X&X&X&X&X&X&X-.-.-.=.=.=.;.;.;.;./ ;./ / / / / ! ! ! ~ ~ ~ ~ ~ I ~ I I I K K K K U U U U &X&X&X&X&X&X&X&X&X&X&X&X&X",
"&X&X&X&X&X&X&X&X&X&X&X&X&X&X-.-.=.;.=.;.;.;.;./ / / / / ! / ! / ! ! ~ ~ ~ ~ ~ ~ ~ I I I I K K K U &X&X&X&X&X&X&X&X&X&X&X&X&X&X&X",
"&X&X&X&X&X&X&X&X&X&X&X&X&X&X&X&X-.-.=.;.;.;.;.;./ ;.;./ / ! / ! ! ! ! ~ ~ ~ I ~ I ~ I I I K K K &X&X&X&X&X&X&X&X&X&X&X&X&X&X&X&X",
"&X&X&X&X&X&X&X&X&X&X&X&X&X&X&X&X&X&X=.=.=.;.;.;.;./ / ;./ / / ! ! ! ! ! ~ ~ ~ ~ ~ I I I I I &X&X&X&X&X&X&X&X&X&X&X&X&X&X&X&X&X&X",
"&X&X&X&X&X&X&X&X&X&X&X&X&X&X&X&X&X&X&X&X=.=.;.=.;.;.;./ / / / / / ! ! ~ ! ~ ! W L L H &X&X&X&X&X&X&X&X&X&X&X&X&X&X&X&X&X&X&X&X&X",
"&X&X&X&X&X&X&X&X&X&X&X&X&X&X&X&X&X&X&X&X&X&X&X+ =.+ ^ ^ + + ^ ^ W W W W W W H :.&X&X&X&X&X&X&X&X&X&X&X&X&X&X&X&X&X&X&X&X&X&X&X&X",
"&X&X&X&X&X&X&X&X&X&X&X&X&X&X&X&X&X&X&X&X&X&X&X&X&X&X&X&X2.2.2.2.2.2.2.2.&X&X&X&X&X&X&X&X&X&X&X&X&X&X&X&X&X&X&X&X&X&X&X&X&X&X&X&X"
};
