/* XPM */
static char *_c470015bb0d4c09b8a326bdff9e2cfa[] = {
/* columns rows colors chars-per-pixel */
"32 32 150 2 ",
"   c #7F2177",
".  c #7C237D",
"X  c #7F287F",
"o  c #9F1534",
"O  c #9D173C",
"+  c #9E193C",
"@  c #A91526",
"#  c #A3122A",
"$  c #AB1B2B",
"%  c #A21632",
"&  c #A61B35",
"*  c #AA1E32",
"=  c #A41E3B",
"-  c #AF212F",
";  c #B0212D",
":  c #AC2234",
">  c #A6233E",
",  c #A9223B",
"<  c #B22D3C",
"1  c #971642",
"2  c #9D1D44",
"3  c #951A4C",
"4  c #991E4B",
"5  c #8F1B55",
"6  c #8C1C5C",
"7  c #921B52",
"8  c #A01E40",
"9  c #9F2046",
"0  c #9E244D",
"q  c #952155",
"w  c #9B2553",
"e  c #9D2A56",
"r  c #96265C",
"t  c #992658",
"y  c #9A2B5C",
"u  c #A32344",
"i  c #AB2941",
"p  c #A02449",
"a  c #AA2F4A",
"s  c #AB324C",
"d  c #B23649",
"f  c #B53B4C",
"g  c #B93C49",
"h  c #A63356",
"j  c #A93352",
"k  c #A4335A",
"l  c #AE3F5C",
"z  c #B53F53",
"x  c #871D65",
"c  c #891D62",
"v  c #861F6A",
"b  c #8E2565",
"n  c #86226C",
"m  c #8D286C",
"M  c #922763",
"N  c #912967",
"B  c #9B2E60",
"V  c #932D6B",
"C  c #9D3465",
"Z  c #9B356B",
"A  c #852675",
"S  c #882771",
"D  c #872A77",
"F  c #892972",
"G  c #82277B",
"H  c #842A7C",
"J  c #8F3176",
"K  c #8D327B",
"L  c #983772",
"P  c #963977",
"I  c #943A7C",
"U  c #BA4452",
"Y  c #B1425B",
"T  c #B94A5D",
"R  c #AC4568",
"E  c #BF5A6B",
"W  c #AF5277",
"Q  c #AE537B",
"!  c #BC5B71",
"~  c #B55D7E",
"^  c #C05A69",
"/  c #C46473",
"(  c #7B2481",
")  c #7F2A84",
"_  c #7E2C88",
"`  c #812B82",
"'  c #873387",
"]  c #893382",
"[  c #8D3E8C",
"{  c #933D82",
"}  c #924087",
"|  c #92428B",
" . c #8F4390",
".. c #AF5B85",
"X. c #AD5D8C",
"o. c #B05F8A",
"O. c #A95E91",
"+. c #AD608F",
"@. c #B3648A",
"#. c #B96889",
"$. c #AA6294",
"%. c #A6639D",
"&. c #A9639A",
"*. c #AE6B9E",
"=. c #B26792",
"-. c #B46C96",
";. c #B96E92",
":. c #B26C9A",
">. c #BB7090",
",. c #B4719D",
"<. c #A564A1",
"1. c #A669A7",
"2. c #AC6CA2",
"3. c #C97584",
"4. c #CF7D87",
"5. c #CC7C89",
"6. c #C87E93",
"7. c #CC808F",
"8. c #D0818A",
"9. c #CD8FA5",
"0. c #D495A3",
"q. c #D4A1B4",
"w. c #DAA6B3",
"e. c #DEAAB3",
"r. c #DDADBA",
"t. c #E0ACB2",
"y. c #D7ACC0",
"u. c #DDB3C2",
"i. c #DDB8C7",
"p. c #E6C0C7",
"a. c #E6C2CB",
"s. c #EAC8CE",
"d. c #E7CEDB",
"f. c #E9CED8",
"g. c #EED3D7",
"h. c #E7D0DF",
"j. c #EED3D8",
"k. c #ECDBE6",
"l. c #ECDCE9",
"z. c #F4E2E5",
"x. c #F2E4EC",
"c. c #F5E9ED",
"v. c #F9EDEE",
"b. c #F1E7F0",
"n. c #F7EDF1",
"m. c #F8EDF0",
"M. c #FBF4F5",
"N. c #FCF7F8",
"B. c #FFFFFF",
"V. c None",
/* pixels */
"V.V.V.V.V.V.V.V.V.V.V.V.V.z Y z z z g V.V.V.V.V.V.V.V.V.V.V.V.V.",
"V.V.V.V.V.V.V.V.V.V.u 8 u = & & * * * $ $ $ V.V.V.V.V.V.V.V.V.V.",
"V.V.V.V.V.V.V.V.0 9 u u u u > , , , : : - - ; ; V.V.V.V.V.V.V.V.",
"V.V.V.V.V.V.w 0 0 9 9 9 8 = = > , & * * * - : ; - - V.V.V.V.V.V.",
"V.V.V.V.V.w w e k k k h j j s s s s d f d , @ $ - ; ; V.V.V.V.V.",
"V.V.V.V.r r 7 #.n.n.n.n.n.n.n.n.N.M.j.a.s.g.t.U @ - ; ; V.V.V.V.",
"V.V.V.M M r 7 >.B.B.B.B.B.B.B.B.a.! a , i T e.M.4.@ ; ; - V.V.V.",
"V.V.V.M M r 7 >.B.B.B.B.B.B.B.0.= O & > , & # / B.4.@ - - V.V.V.",
"V.V.N M M M 5 ;.B.B.B.B.B.B.u.O u u u u , , , # 4.B.U $ $ ; V.V.",
"V.m m N N M 5 ;.B.B.B.B.B.N.R 2 p u u u u u , , * z.t.$ : $ V.V.",
"V.m m m N N 6 ;.B.B.B.B.B.f.4 0 p p u u u u , , # 0.v.: : $ g V.",
"V.m m m m N 6 -.B.B.B.B.B.u.3 w w p p u u u u , % 3.B.d $ * < V.",
"D F F m m m 6 :.B.B.B.B.B.i.3 w w p 0 p u u u u % 5.B.d * : $ V.",
"D D F F m m c ,.B.B.B.B.B.l.w q w 0 0 p p p u u o r.c., : : $ 7.",
"D D D F F m x ,.B.B.B.B.B.B.@.3 w w e 0 p p u 2 a N.w.% , : $ / ",
"H D D F F m x ,.B.B.B.B.B.B.z.C 7 w e w w p 2 O r.B.Y & > , & E ",
"H H D D F F n &.l.l.l.l.l.l.x.r.y 3 4 4 4 1 p w.B.6.+ , > > & ^ ",
"` H H D F F S I $.X.X.X.X.....@...Q Q Q ~ 9.c.B.6.O u u u , & / ",
"G ` H H G D n &.l.k.k.k.l.k.k.k.l.l.x.x.x.l.q.R 1 p p u u > = 6.",
" .G ` H H D A { &.$.$.$.+.O.+.X.o...C B y 0 3 4 0 p p p u u = V.",
"V.) ` G H H A &.k.k.k.k.k.k.k.k.k.f.C q q t w e w p 0 p u u a V.",
"V.( ` ` H H G } 2.*.*.%.*.:.=.=.=.=.N r r r t w e w 0 p 9 9 l V.",
"V.( ` ` G `   %.l.l.l.k.k.k.k.k.l.h.Z r r r r t w w w p 0 9 V.V.",
"V.V.) ` ` ` X | 1.2.2.2.*.*.*.*.-.=.V M M r r t t w w 0 w 2 V.V.",
"V.V._ _ ` ` . <.l.l.l.l.k.k.k.k.l.h.L b M M r r r w w w w V.V.V.",
"V.V.V._ _ ` ) [ <.%.<.%.%.%.&.$.$.O.m b M N M r r r t w w V.V.V.",
"V.V.V.V._ _ . 1.b.b.b.b.b.b.b.b.c.l.P b N N M r r r r w V.V.V.V.",
"V.V.V.V.V._ ) ) ' ' ' ] K ] K K J J m m m b N M M r r V.V.V.V.V.",
"V.V.V.V.V.V._ ) ) ) G G G G D A F A F m m m N N M M V.V.V.V.V.V.",
"V.V.V.V.V.V.V.V.) ) ) ` ` H H D D F D m m N m N V.V.V.V.V.V.V.V.",
"V.V.V.V.V.V.V.V.V.) ) ) G G G G D A A S n n V.V.V.V.V.V.V.V.V.V.",
"V.V.V.V.V.V.V.V.V.V.V.V. . .| | | } { V.V.V.V.V.V.V.V.V.V.V.V.V."
};
