/* XPM */
static char *_c4c9a0f3c764b4fdd14aa250e215641[] = {
/* columns rows colors chars-per-pixel */
"16 16 182 2 ",
"   c #7D1E76",
".  c #7B1F7A",
"X  c #791F7E",
"o  c #A50C1F",
"O  c #A9101F",
"+  c #9E1537",
"@  c #9B1239",
"#  c #9C153B",
"$  c #9E1B3F",
"%  c #A40F25",
"&  c #AA1221",
"*  c #A81224",
"=  c #A4142D",
"-  c #A4152F",
";  c #AD1928",
":  c #AD1A29",
">  c #A8182D",
",  c #A11432",
"<  c #A51730",
"1  c #A31936",
"2  c #A01839",
"3  c #A51E3A",
"4  c #A51F3B",
"5  c #A11B3C",
"6  c #A21D3D",
"7  c #B1202B",
"8  c #991640",
"9  c #9E1B40",
"0  c #9B1B44",
"q  c #9C1B44",
"w  c #9C1C45",
"e  c #94184B",
"r  c #92184F",
"t  c #971E4F",
"y  c #921F58",
"u  c #9F234B",
"i  c #9A204C",
"p  c #9B214D",
"a  c #9C224E",
"s  c #9C234F",
"d  c #8F205D",
"f  c #962357",
"g  c #9D2550",
"h  c #9D2551",
"j  c #9A2555",
"k  c #9B2655",
"l  c #94245D",
"z  c #95275F",
"x  c #96275F",
"c  c #98265A",
"v  c #A42141",
"b  c #A52443",
"n  c #A22347",
"m  c #AE2F46",
"M  c #A22448",
"N  c #A0254C",
"B  c #B02D41",
"V  c #AC304A",
"C  c #AA304E",
"Z  c #AE354F",
"A  c #B53645",
"S  c #B53D4F",
"D  c #B33D52",
"F  c #B43D53",
"G  c #831E6E",
"H  c #801E72",
"J  c #8D2062",
"K  c #8C2163",
"L  c #8A2167",
"P  c #87216B",
"I  c #8A2268",
"U  c #89266F",
"Y  c #8E286C",
"T  c #922562",
"R  c #932763",
"E  c #902667",
"W  c #902868",
"Q  c #96326F",
"!  c #98326B",
"~  c #862572",
"^  c #842677",
"/  c #8B2970",
"(  c #8B2971",
")  c #892975",
"_  c #82267B",
"`  c #80277F",
"'  c #862A79",
"]  c #83297C",
"[  c #84297D",
"{  c #912F71",
"}  c #8C347F",
"|  c #A43A65",
" . c #BC576C",
".. c #BD596E",
"X. c #AC4A72",
"o. c #AA4D77",
"O. c #AA507E",
"+. c #AD527C",
"@. c #B55574",
"#. c #B55979",
"$. c #B55A7B",
"%. c #C15764",
"&. c #C25864",
"*. c #C35A66",
"=. c #C65E69",
"-. c #C16072",
";. c #C2677B",
":. c #C1687F",
">. c #7D2783",
",. c #7E2782",
"<. c #7B2886",
"1. c #7C2886",
"2. c #7C2987",
"3. c #863184",
"4. c #8B3684",
"5. c #87378B",
"6. c #893788",
"7. c #8A3B8E",
"8. c #933B81",
"9. c #953F83",
"0. c #994382",
"q. c #944188",
"w. c #92428C",
"e. c #90438F",
"r. c #934B97",
"t. c #A55185",
"y. c #A85181",
"u. c #A4538A",
"i. c #AA6196",
"p. c #BD7394",
"a. c #B677A5",
"s. c #B77DAC",
"d. c #B67DAE",
"f. c #B37EB3",
"g. c #B47EB1",
"h. c #CC7682",
"j. c #CA7584",
"k. c #D3868F",
"l. c #C6849F",
"z. c #D48E99",
"x. c #D7939D",
"c. c #C686A3",
"v. c #CF8DA0",
"b. c #CF91A4",
"n. c #CE91A7",
"m. c #D191A2",
"M. c #D593A0",
"N. c #D795A0",
"B. c #D495A4",
"V. c #CC98B5",
"C. c #CB9AB8",
"Z. c #CA9ABA",
"A. c #CC9CB9",
"S. c #CE9DB8",
"D. c #C99BBC",
"F. c #CC9EBD",
"G. c #DCA1AB",
"H. c #CFA1BD",
"J. c #CEA1BF",
"K. c #D1A1BA",
"L. c #D3A4BC",
"P. c #DDB0BE",
"I. c #CDA2C1",
"U. c #CCA2C3",
"Y. c #CFA4C1",
"T. c #CEA5C3",
"R. c #CDA5C5",
"E. c #CFA6C4",
"W. c #CCA5C7",
"Q. c #CEA7C6",
"!. c #CDA7C9",
"~. c #CEA7C8",
"^. c #D7AFC6",
"/. c #D6AFC7",
"(. c #D5AFC9",
"). c #E2B6C1",
"_. c #EFDBE3",
"`. c #F1E0E7",
"'. c #F9F0F3",
"]. c #FEFBFC",
"[. c gray100",
"{. c None",
/* pixels */
"{.{.{.{.{.C V m B A =.{.{.{.{.{.",
"{.{.{.p # # # , - > * O {.{.{.{.",
"{.{.f | n.n.m.B.x.j.j.%.; 7 {.{.",
"{.R y +.[.[.[.'.j.C D z.k.; {.{.",
"{.W d O.[.[.].@.@ b 3 - G.*.& {.",
"/ Y J y.[.[._.a u n b 1 -.x.o {.",
") / L t.[.[.`.j p M M 2 ;.N.% %.",
"' ) P u.[.[.[.p.e p 0 9 )...< S ",
"] ' ~ 0.(.^.^.K.o.X.$.P.v.2 3 F ",
"3.] _ 9.Z.Z.C.S.L.c.l.$.0 n 6 ..",
"r.` _ 9.U.U.H.H.V.z r t h N $ {.",
"{.>.` w.W.Q.E.E.Z.! z c j h q {.",
"{.<.>.e.!.!.Q.E.F.Q R x c j {.{.",
"{.{.2.7.f.g.d.s.a.{ E R z c {.{.",
"{.{.{.2.X .   H G U L K {.{.{.{.",
"{.{.{.{.{.5.6.4.} 8.i.{.{.{.{.{."
};
